<svg width="512" height="512" viewBox="0 0 512 512" xmlns="http://www.w3.org/2000/svg">
    <rect x="0" y="0" width="512" height="512" rx="0" ry="0" fill="#ff8800" />
    <g transform="translate(65,65)">
        <path
            d="M 339.641 1.466 L 39.641 1.466 C 34.127 1.466 29.641 5.934 29.641 11.427 L 29.641 369.32 C 29.641 374.812 34.127 379.281 39.641 379.281 L 339.641 379.281 C 345.155 379.281 349.641 374.812 349.641 369.32 L 349.641 11.427 C 349.641 5.934 345.154 1.466 339.641 1.466 Z M 329.641 359.358 L 49.641 359.358 L 50.374 78.596 L 329.641 78.597 L 329.641 359.358 Z"
            fill="#fff"/>
        <path
            d="M 91.71 275.648 L 291.71 275.648 C 294.472 275.648 296.71 273.409 296.71 270.648 L 296.71 236.648 C 296.71 233.887 294.472 231.648 291.71 231.648 L 91.71 231.648 C 88.948 231.648 86.71 233.887 86.71 236.648 L 86.71 270.648 C 86.71 273.409 88.948 275.648 91.71 275.648 Z"
            fill="#fff"/>
        <path
            d="M 200.625 208.581 L 291.625 208.581 C 294.387 208.581 296.625 206.342 296.625 203.581 L 296.625 108.581 C 296.625 105.82 294.387 103.581 291.625 103.581 L 200.625 103.581 C 197.863 103.581 195.625 105.82 195.625 108.581 L 195.625 203.581 C 195.625 206.342 197.863 208.581 200.625 208.581 Z"
            fill="#fff"/>
        <path
            d="M 163.329 104.443 L 93.329 104.443 C 90.567 104.443 88.329 106.682 88.329 109.443 L 88.329 138.443 C 88.329 141.204 90.567 143.443 93.329 143.443 L 163.329 143.443 C 166.091 143.443 168.329 141.204 168.329 138.443 L 168.329 109.443 C 168.329 106.681 166.09 104.443 163.329 104.443 Z"
            fill="#fff"/>
        <path
            d="M 162.596 169.668 L 92.596 169.668 C 89.834 169.668 87.596 171.907 87.596 174.668 L 87.596 203.668 C 87.596 206.429 89.834 208.668 92.596 208.668 L 162.596 208.668 C 165.358 208.668 167.596 206.429 167.596 203.668 L 167.596 174.668 C 167.596 171.907 165.357 169.668 162.596 169.668 Z"
            fill="#fff"/>
        <path
            d="M 91.877 336.396 L 291.877 336.396 C 294.639 336.396 296.877 334.157 296.877 331.396 L 296.877 297.396 C 296.877 294.635 294.639 292.396 291.877 292.396 L 91.877 292.396 C 89.115 292.396 86.877 294.635 86.877 297.396 L 86.877 331.396 C 86.877 334.157 89.115 336.396 91.877 336.396 Z"
            fill="#fff"/>
    </g>
</svg>
